# xmcd
#
# Track frame offsets:
#	150
#	20959
#	38332
#	55343
#	74681
#	91831
#	114638
#	133334
#	155026
#	174935
#	196780
#	214098
#	232530
#	255786
#	277562
#	288456
#	303467
#	322039
#	326957
#	345799
#
# Disc length: 4701 seconds
#
# Revision: 1
# Processed by: cddbd v1.5.2PL0 Copyright (c) Steve Scherf et al.
# Submitted via: audiograbber 1.83.01
#
DISCID=17125b14
DTITLE=Billy Cook - The Truth
DYEAR=2006
DGENRE=R&B
TTITLE0=Billy Cook feat. Trae - That shit gone change
TTITLE1=Billy Cook feat. Bun B and Congo - SLAB on Blades
TTITLE2=Billy Cook feat. B.T. - Peep my Swagger
TTITLE3=Billy Cook feat. 3-2 - Still Platinum
TTITLE4=Billy Cook feat. Yung Chill - Rollin
TTITLE5=Billy Cook feat. Trae and C-Note - Days of My Life
TTITLE6=Billy Cook feat. Fat Pat and 3-2 - Luv it Man
TTITLE7=Billy Cook feat. 3-2 - Rep the South Side
TTITLE8=Billy Cook feat. Chamillionaire and Archie Lee - Claimin they Gangsta
TTITLE9=Billy Cook feat. H.A.W.K. and Kizzo - Drama
TTITLE10=Billy Cook feat. Yung Chill - Energizer
TTITLE11=Billy Cook feat. Congo, Talent and Kizzo - B.A.B.U.
TTITLE12=Billy Cook feat. B.T. and Congo - Lil Strippa
TTITLE13=Billy Cook - 1 Room Vacancy
TTITLE14=Billy Cook feat. Yung Chill - Missin You
TTITLE15=Billy Cook - Never left my side
TTITLE16=Billy Cook - After Party
TTITLE17=Billy Cook - Skit "Shawn Harris" (Dat Bubble)
TTITLE18=Billy Cook - Dat Bubble
TTITLE19=Billy Cook feat. Congo - I can't see it
EXTD=
EXTT0=
EXTT1=
EXTT2=
EXTT3=
EXTT4=
EXTT5=
EXTT6=
EXTT7=
EXTT8=
EXTT9=
EXTT10=
EXTT11=
EXTT12=
EXTT13=
EXTT14=
EXTT15=
EXTT16=
EXTT17=
EXTT18=
EXTT19=
PLAYORDER=
